<?xml version="1.0" standalone="no"?>
<svg xmlns:xlink="http://www.w3.org/1999/xlink" id="wave" style="transform:rotate(0deg); transition: 0.3s" viewBox="0 0 1440 170" version="1.1" xmlns="http://www.w3.org/2000/svg"><defs><linearGradient id="sw-gradient-0" x1="0" x2="0" y1="1" y2="0"><stop stop-color="rgba(0, 0, 0, 1)" offset="0%"/><stop stop-color="rgba(0, 0, 0, 1)" offset="100%"/></linearGradient></defs><path style="transform:translate(0, 0px); opacity:1" fill="url(#sw-gradient-0)" d="M0,119L48,119C96,119,192,119,288,99.2C384,79,480,40,576,36.8C672,34,768,68,864,76.5C960,85,1056,68,1152,76.5C1248,85,1344,119,1440,110.5C1536,102,1632,51,1728,39.7C1824,28,1920,57,2016,56.7C2112,57,2208,28,2304,25.5C2400,23,2496,45,2592,53.8C2688,62,2784,57,2880,45.3C2976,34,3072,17,3168,17C3264,17,3360,34,3456,39.7C3552,45,3648,40,3744,51C3840,62,3936,91,4032,110.5C4128,130,4224,142,4320,124.7C4416,108,4512,62,4608,48.2C4704,34,4800,51,4896,59.5C4992,68,5088,68,5184,82.2C5280,96,5376,125,5472,136C5568,147,5664,142,5760,124.7C5856,108,5952,79,6048,76.5C6144,74,6240,96,6336,113.3C6432,130,6528,142,6624,133.2C6720,125,6816,96,6864,82.2L6912,68L6912,170L6864,170C6816,170,6720,170,6624,170C6528,170,6432,170,6336,170C6240,170,6144,170,6048,170C5952,170,5856,170,5760,170C5664,170,5568,170,5472,170C5376,170,5280,170,5184,170C5088,170,4992,170,4896,170C4800,170,4704,170,4608,170C4512,170,4416,170,4320,170C4224,170,4128,170,4032,170C3936,170,3840,170,3744,170C3648,170,3552,170,3456,170C3360,170,3264,170,3168,170C3072,170,2976,170,2880,170C2784,170,2688,170,2592,170C2496,170,2400,170,2304,170C2208,170,2112,170,2016,170C1920,170,1824,170,1728,170C1632,170,1536,170,1440,170C1344,170,1248,170,1152,170C1056,170,960,170,864,170C768,170,672,170,576,170C480,170,384,170,288,170C192,170,96,170,48,170L0,170Z"/></svg>