<?xml version="1.0" encoding="UTF-8" standalone="no"?>
<!-- Created with Inkscape (http://www.inkscape.org/) -->

<svg
   width="57.193665mm"
   height="36.011917mm"
   viewBox="0 0 57.193665 36.011917"
   version="1.1"
   id="svg1"
   inkscape:version="1.3.2 (091e20e, 2023-11-25, custom)"
   sodipodi:docname="rider.svg"
   xmlns:inkscape="http://www.inkscape.org/namespaces/inkscape"
   xmlns:sodipodi="http://sodipodi.sourceforge.net/DTD/sodipodi-0.dtd"
   xmlns="http://www.w3.org/2000/svg"
   xmlns:svg="http://www.w3.org/2000/svg">
  <sodipodi:namedview
     id="namedview1"
     pagecolor="#ffffff"
     bordercolor="#000000"
     borderopacity="0.25"
     inkscape:showpageshadow="2"
     inkscape:pageopacity="0.0"
     inkscape:pagecheckerboard="0"
     inkscape:deskcolor="#d1d1d1"
     inkscape:document-units="mm"
     inkscape:zoom="0.69219276"
     inkscape:cx="93.182136"
     inkscape:cy="195.75472"
     inkscape:window-width="1920"
     inkscape:window-height="991"
     inkscape:window-x="-9"
     inkscape:window-y="-9"
     inkscape:window-maximized="1"
     inkscape:current-layer="layer4" />
  <defs
     id="defs1" />
  <g
     inkscape:label="Ebene 1"
     inkscape:groupmode="layer"
     id="layer1"
     transform="translate(-80.433333,-96.572917)">
    <g
       inkscape:groupmode="layer"
       id="layer4"
       inkscape:label="CattlePerson"
       style="display:inline;fill:#000000"
       transform="translate(82.982604,-83.449151)">
      <g
         id="g28"
         transform="matrix(7.5035061,0,0,7.5035061,-0.15908317,144.14978)"
         style="display:inline;fill:#2d2e2b;fill-opacity:1">
        <path
           id="path12"
           style="opacity:1;fill:#2d2e2b;fill-opacity:1;stroke:none;stroke-width:0.264583px;stroke-linecap:butt;stroke-linejoin:miter;stroke-opacity:1"
           d="m 4.3961141,5.0653239 c -0.087735,3.932e-4 -0.060511,0.1166538 -0.0093,0.1560628 0.040659,0.073878 0.137566,0.078192 0.214974,0.080615 0.070261,0.021971 0.019378,0.1219729 0.01912,0.1875854 -0.026265,0.00835 -0.057791,0.01471 -0.099219,0.017053 -0.374972,-0.116967 -0.2230377,0.2678481 -0.2682007,0.3870565 -0.054409,-0.00732 -0.1773406,0.00493 -0.3229777,-0.00362 0.034366,0.080605 0.084841,0.1011712 0.1524455,0.1224731 0.040274,0.01269 -0.059419,0.015052 -0.0894,0.053743 -0.0092,-0.00562 -0.018358,-0.00954 -0.029456,-0.00827 -0.026969,-0.00907 -0.052856,-0.024866 -0.082165,-0.024288 -0.017064,-0.016339 -0.043351,-0.00186 -0.057878,0.012919 -0.023861,-0.1459697 -0.090718,-0.084228 -0.1198893,-0.1229899 -0.019343,0.00316 -0.041939,-0.068473 -0.049609,-0.082165 -0.01384,0.00552 -0.00904,0.078994 -0.0093,0.071313 -0.024946,-0.0068 -0.030375,-0.130049 -0.027905,-0.151412 -0.00309,0.024359 -0.014154,0.045361 -0.020154,0.068213 l 0.00568,-0.00413 c -0.027138,0.034258 -0.032565,0.08115 -0.024805,0.1229899 0.00741,0.05179 0.03012,0.1020835 0.073897,0.1328085 0.039027,0.028773 0.089862,0.021516 0.1348755,0.016536 l 0.024805,-0.016536 c 0.00419,2.993e-4 0.00692,-8.189e-4 0.00827,-0.00258 0.02803,0.023414 0.054243,0.052103 0.094051,0.053227 0.020512,0.00455 0.041062,-0.00545 0.058911,-0.014986 0.00146,-0.0013 0.00295,-0.00269 0.00413,-0.00413 0.020068,0.055687 0.028727,0.1752344 -0.280603,0.2640665 C 3.3307541,6.481881 2.9980265,6.742287 2.885612,6.8605632 2.920822,6.9466842 2.888282,6.9804741 2.904732,7.0006063 2.6976569,7.0470527 2.5237751,7.3522002 2.6990601,7.6522461 2.8743449,7.9522921 2.4829659,7.8417772 2.280481,7.5556112 2.1073268,7.3108974 1.833828,7.3982809 1.9792074,7.5173706 2.3787596,7.84467 1.7782149,7.7020674 1.6345256,7.6641317 c -0.00346,0.043475 0.00103,0.1204061 0.00103,0.1204061 C 1.4934612,7.7525968 1.4620939,7.7210663 1.3110311,7.7240763 1.3460885,7.8894325 1.2268368,7.8112716 1.0604004,7.7891886 0.70231715,7.6897706 0.30485804,7.9066217 0.01240234,8.0780599 L -0.1405599,8.0573893 c 0.0337375,0.2974829 -0.006492,0.5988738 0.0232544,0.8955526 C -0.1503654,9.2483396 0.09823493,9.5364444 0.39480794,9.5218994 0.99233636,9.6313519 1.600565,9.5553653 2.2024495,9.5415365 2.9825529,9.4444829 3.7502848,9.2690808 4.5284058,9.1586141 4.8061915,9.0633325 5.0146583,9.3799228 5.3645304,8.8573405 5.5055344,8.6128049 5.5527975,8.3335526 5.6890584,8.0847778 5.7711894,7.9204441 6.0182554,7.7783901 6.1184896,7.7158081 6.1815169,7.8433952 6.2878824,7.8106756 6.4032267,7.9219971 6.7837229,8.0756724 6.6813959,8.2418094 6.8781331,8.2563436 7.092985,8.098776 7.0218566,8.378325 7.2000773,8.334375 7.4442951,8.0707415 7.2027857,7.6492465 7.0300618,7.3840454 6.8738461,7.0572726 6.4923866,6.7038752 6.2001383,6.4998617 6.1794637,6.3517837 5.9912717,6.261038 5.8745768,6.1975545 5.9005088,6.2808325 5.8780468,6.3231589 5.8952478,6.431132 5.8528048,6.405214 5.6130308,6.383513 5.532996,6.391341 5.574917,6.43741 5.605013,6.440661 5.6534021,6.5401692 5.532994,6.7023174 5.2666138,6.78954 5.0937459,6.9303263 4.8679321,7.1260706 5.112244,6.7709769 4.9180461,6.7763306 4.6916038,7.1177191 4.5748122,6.6769608 4.6152222,6.4724731 4.5939292,6.2438286 4.9182738,6.4027164 4.9061605,6.3179606 4.8901965,6.2062622 4.9124767,6.188741 4.9035767,6.0817993 c 0.1551359,-0.064088 0.091209,-0.011036 0.01912,-0.1591634 0.1439468,-0.013492 0.4875393,-0.00266 0.2356446,-0.1198893 -0.09938,-0.00933 -0.2114281,-0.048876 -0.2511475,-0.057361 -0.03972,-0.00849 -0.043065,-0.018183 -0.087333,-0.024805 -0.006,-0.028671 -0.046995,-0.1889423 -0.05116,-0.3229777 0.00336,-0.038241 0.00803,-0.075909 0.012919,-0.1235067 -0.023222,-0.066728 -0.013914,-0.1494801 -0.1312582,-0.1819011 -0.087729,0.031733 -0.1418478,7.406e-4 -0.2351277,-0.025321 -0.0069,-0.00106 -0.013271,-0.00158 -0.01912,-0.00155 z m 0.039791,2.1259684 c 0.00499,-3.043e-4 0.00816,0.00427 0.00879,0.018604 0.024159,0.021994 0.027846,0.061233 0.057361,0.074414 0.024308,-0.00322 0.049077,-0.016682 0.072347,-0.026872 -0.021059,0.031038 -0.065398,0.024431 -0.099219,0.046509 -0.041768,0.021598 -0.073278,0.056821 -0.109554,0.081649 -0.038417,0.023798 -0.082201,0.043906 -0.1147217,0.07028 -0.032322,0.019677 -0.064184,0.04277 -0.083716,0.074414 -0.028508,0.029031 -0.055199,0.061424 -0.09095,0.085783 -0.014063,0.015082 -0.024793,0.038755 -0.048576,0.023771 -0.038169,-0.00169 -0.082229,-0.00232 -0.1167887,-0.010335 -0.032598,-0.00618 -0.072414,-0.016959 -0.099219,-0.00207 -0.033619,0.013611 -0.048222,0.038095 -0.077515,0.051676 -0.021856,-0.00103 -0.058395,-0.00964 -0.07338,-0.026872 0.018519,-0.031322 0.023658,-0.067866 0.026872,-0.1033529 -0.00951,-0.024244 -0.068739,-0.024444 -0.088884,-0.051676 -0.019502,-0.030416 -0.00411,-0.06701 0.022738,-0.086816 0.032561,-0.02177 0.068418,-0.042646 0.107487,-0.054777 0.035981,-0.019763 0.074973,-0.030843 0.1136881,-0.046509 0.037046,-0.012205 0.076507,-0.018048 0.1116211,-0.03514 0.036996,-0.014642 0.084837,-0.022848 0.1198893,-0.032039 0.03524,0.00755 0.077125,-0.054937 0.095085,-0.00103 0.00303,0.032658 0.041427,0.029264 0.069246,0.028939 0.013689,0.00349 0.033035,-0.0035 0.031006,-0.00413 0.039335,-0.018425 0.079445,-0.034374 0.1188558,-0.051677 0.017337,0.00263 0.036566,-0.022068 0.047542,-0.022738 z" />
        <path
           style="opacity:1;fill:none;fill-opacity:1;stroke:#2d2e2b;stroke-width:0.03;stroke-dasharray:none;stroke-opacity:1;paint-order:stroke fill markers"
           d="m 2.6499674,5.5066406 c 0.065384,0.097342 0.1931769,0.1136194 0.3012242,0.1126766 0.1406074,0.00335 0.2823921,0.0096 0.4223657,-0.00404 C 3.468889,5.596318 3.5648217,5.5741358 3.6525755,5.5310953 3.8181324,5.5134582 3.9273721,5.3742356 4.0606662,5.2909621 4.1450798,5.2342165 4.2226969,5.1627974 4.3189808,5.126758 c 0.025894,-0.0074 0.053029,-0.00993 0.079889,-0.00887"
           id="path17" />
        <path
           style="opacity:1;fill:none;fill-opacity:1;stroke:#2d2e2b;stroke-width:0.03;stroke-dasharray:none;stroke-opacity:1;paint-order:stroke fill markers"
           d="M 4.3673511,5.1157057 C 4.1159697,5.0214692 3.83827,5.0191656 3.5803197,4.9559291 3.2711562,4.8680644 2.958237,4.8118394 2.6379114,4.7960561 2.3716454,4.7866621 2.1479635,4.9900074 1.8731825,4.907556 1.4835467,4.8603114 1.0948742,4.9474475 0.72347062,5.0542622 0.48173807,5.0625885 0.24447588,5.1186619 0.0343242,5.2377667 -0.18782825,5.2341825 -0.48753895,5.5197036 -0.15597802,5.6407965 0.28766731,5.8466809 0.79469477,5.8316353 1.2669301,5.7572513 1.5526055,5.6784204 1.8299937,5.5085889 2.1370394,5.5669188 c 0.3416972,0.014028 0.6893749,0.025964 1.0203797,-0.075329 0.3835668,-0.069407 0.7485134,-0.2071092 1.1050426,-0.360015 0.033948,-0.01018 0.069308,-0.016776 0.1048894,-0.015869 z"
           id="path18" />
        <path
           style="opacity:1;fill:#2d2e2b;fill-opacity:1;stroke:none;stroke-width:0.03;stroke-dasharray:none;stroke-opacity:1;paint-order:stroke fill markers"
           d="m 2.7905273,5.5769205 c -0.033241,-0.049861 -9.525e-4,0.00328 -0.028939,-0.062012 -0.00316,-0.00738 -0.00758,-0.014242 -0.012401,-0.020672 -0.00351,-0.00468 -0.00827,-0.00827 -0.012401,-0.012401 -0.00138,-0.00138 -0.00251,-0.00305 -0.00414,-0.00414 -0.00257,-0.00172 -0.00551,-0.00276 -0.00827,-0.00414 -0.00276,-0.00138 -0.00528,-0.00339 -0.00827,-0.00414 -0.00267,-6.615e-4 -0.00551,0 -0.00827,0 -0.013372,0 -0.020307,0.00135 -0.033073,-0.00414 -0.01596,0.0049 -0.00956,-0.013049 -0.016536,-0.016536 -0.0037,-0.00185 -0.00835,8.202e-4 -0.012401,0 -0.00302,-6.086e-4 -0.00528,-0.00339 -0.00827,-0.00414 -0.00401,-0.00101 -0.00827,0 -0.012402,0 -0.00138,0 -0.00316,-9.789e-4 -0.00413,0 -9.737e-4,9.79e-4 6.164e-4,0.0029 0,0.00414 -8.705e-4,0.00175 -0.00366,0.00225 -0.00413,0.00414 -0.00134,0.00535 0,0.011025 0,0.016536 0,0.010395 -0.00215,0.033803 0.00413,0.041341 0.00441,0.00529 0.011156,0.0081 0.016536,0.012401 0.00152,0.00122 0.00239,0.00326 0.00413,0.00414 0.00123,6.085e-4 0.00316,-9.79e-4 0.00413,0 0.00217,0.00217 0.00243,0.0057 0.00414,0.00827 0.00151,0.00225 0.019251,0.019725 0.020672,0.020672 0.00513,0.00342 0.011523,0.00469 0.016536,0.00827 0.00476,0.0034 0.00773,0.0089 0.012401,0.012401 0.00111,8.202e-4 0.00316,-9.789e-4 0.00414,0 0.00217,0.00217 0.00196,0.00609 0.00414,0.00827 9.79e-4,9.789e-4 0.00283,-4.234e-4 0.00414,0 0.00292,9.789e-4 0.0057,0.00243 0.00827,0.00414 0.00324,0.00217 0.00478,0.00652 0.00827,0.00827 0.00124,6.086e-4 0.00283,-4.233e-4 0.00414,0 0.00292,9.79e-4 0.00534,0.00316 0.00827,0.00414 0.0013,4.233e-4 0.00276,0 0.00414,0 0.00414,0 0.00827,0 0.012401,0 0.00551,0 0.011025,0 0.016536,0 0.00138,0 0.00316,9.789e-4 0.00414,0 9.79e-4,-9.79e-4 -6.085e-4,-0.0029 0,-0.00414 8.732e-4,-0.00175 0.00276,-0.00276 0.00414,-0.00414 0.00276,-0.00551 0.00551,-0.011025 0.00827,-0.016536 z"
           id="path19" />
        <path
           style="opacity:1;fill:#2d2e2b;fill-opacity:1;stroke:#000000;stroke-width:0.03;stroke-dasharray:none;stroke-opacity:1;paint-order:stroke fill markers"
           d="m 4.8876915,6.3142425 c 0.00225,0.032147 0.00226,0.070943 0.022968,0.093995 -0.00309,0.04813 0.010278,0.09536 0.00625,0.1435142 0.00244,0.046577 1.302e-4,0.092943 -0.011667,0.1366677 0.013006,0.026949 0.00483,0.063538 0.00332,0.093737 -0.020908,0.026695 0.00453,0.076149 -0.032368,0.091789 l -1.886e-4,0.00156"
           id="path20" />
        <path
           style="opacity:1;fill:#2d2e2b;fill-opacity:1;stroke:#000000;stroke-width:0.03;stroke-dasharray:none;stroke-opacity:1;paint-order:stroke fill markers"
           d="M 6.4487125,7.7934123 C 6.3033141,7.9108879 6.2335923,8.0932577 6.1257482,8.2417484 5.9504325,8.528469 5.7122268,8.7704139 5.5416906,9.0597179 5.4942536,9.1341797 5.4319633,9.1960806 5.3729165,9.260892"
           id="path21" />
        <path
           style="opacity:1;fill:none;fill-opacity:1;stroke:#2d2e2b;stroke-width:0.03;stroke-dasharray:none;stroke-opacity:1;paint-order:stroke fill markers"
           d="M 6.9573597,8.1558965 C 6.9530278,8.2969786 7.001906,8.4636143 6.9168633,8.5859698 6.7798344,8.7308367 6.5775096,8.7994048 6.3816428,8.8050338 6.2432567,8.7791115 6.1004263,8.7156997 6.0122099,8.601722 5.906033,8.5033549 5.8040028,8.3995925 5.726393,8.2774166 5.6960194,8.2177995 5.5271961,8.1468364 5.664963,8.2080864 5.6574059,8.1613625 5.6156725,8.1109923 5.624267,8.056491"
           id="path22" />
        <path
           style="opacity:1;fill:#2d2e2b;fill-opacity:1;stroke:none;stroke-width:0.03;stroke-dasharray:none;stroke-opacity:1;paint-order:stroke fill markers"
           d="m 6.9485901,8.3283689 c -0.072837,0.04093 -0.031865,0.171411 -0.06253,0.2381456 0.00734,0.077284 0.089765,0.035192 0.085217,-0.037682 C 7.0093461,8.4766584 7.1091288,8.4202621 7.0400291,8.3494622 6.9641725,8.23793 7.0396312,8.2208425 6.983824,8.1883296 6.960369,8.1827396 6.950727,8.2166856 6.925236,8.2055686"
           id="path23"
           sodipodi:nodetypes="cccccc" />
        <path
           style="opacity:1;fill:#2d2e2b;fill-opacity:1;stroke:none;stroke-width:0.03;stroke-dasharray:none;stroke-opacity:1;paint-order:stroke fill markers"
           d="m 6.0686886,8.272827 c -0.045677,0.029153 -0.069684,0.079789 -0.1040419,0.1198335 -0.018524,0.040102 -0.043544,0.075863 -0.065182,0.1142737 -0.026656,0.046604 -0.057505,0.090248 -0.084469,0.1365068 -0.014826,0.020838 -0.020189,0.054987 -0.045191,0.064583 0.035277,-0.034514 0.099756,-0.028051 0.1196859,-0.080728 0.029271,-0.037644 0.058571,-0.075283 0.083778,-0.1157318 0.019066,-0.044063 0.063785,-0.066676 0.087263,-0.1075677 0.017894,-0.037836 0.054411,-0.065647 0.064165,-0.1070215 0.00131,-0.012644 -6.732e-4,-0.031728 -0.017517,-0.023271 -0.012754,-5.34e-4 -0.02616,-0.00731 -0.038492,-8.764e-4 z"
           id="path24" />
        <path
           style="opacity:1;fill:#2d2e2b;fill-opacity:1;stroke:none;stroke-width:0.03;stroke-dasharray:none;stroke-opacity:1;paint-order:stroke fill markers"
           d="m 6.8258131,8.6440811 c -0.060525,-0.00262 -0.1099641,0.039527 -0.1618198,0.063674 -0.031213,0.00757 -0.051914,0.036118 -0.085393,0.035739 -0.038565,0.014321 -0.078498,0.022344 -0.1185412,0.029707 -0.00519,0.00328 -0.032696,0.00764 -0.011522,0.012734 0.052839,0.01978 0.1111488,0.00743 0.1660306,0.00848 0.036653,-0.013212 0.073188,-0.026775 0.1102955,-0.03893 0.038405,-0.018858 0.093063,-0.02528 0.1078718,-0.072201 0.00418,-0.013218 0.00186,-0.028323 -0.00692,-0.039204 z"
           id="path25" />
      </g>
    </g>
  </g>
</svg>
